# xmcd CD database file
#
# Track frame offsets:
#	150
#	12947
#	28120
#	54183
#	66310
#	80721
#	91787
#	105761
#	128251
#	142155
#	155418
#	168920
#	183190
#	193001
#	204206
#	217950
#	237263
#	269594
#	288523
#
# Disc length: 4012 seconds
#
# Revision: 0
# Processed by: cddbd v1.5.2PL0 Copyright (c) Steve Scherf et al.
# Submitted via: CDex 1.76
#
DISCID=fd0faa13
DTITLE=Various Artist - The golden Years of revival Jazz
DYEAR=1900
DGENRE=Jazz
TTITLE0=Lew Pollack - That's a Plenty
TTITLE1=Buddy Bolden - Don't go away nobody
TTITLE2=Lil Armstrong - Berdido street Blues
TTITLE3=Spencer Williams - Basin Street Blues
TTITLE4=Traditionell - Evrybody loves Saturday Night
TTITLE5=Richard m. Jones - Trouble in Mind
TTITLE6=Jackson - Shake that Shing
TTITLE7=Louis Armstrong - Struttin' with some Barbecue
TTITLE8=Auf der Heide - Dusty Rag
TTITLE9=Lil Armstrong - King of the Zulus
TTITLE10=Dempsey-Mitchell - Ace in the Hole
TTITLE11=Foster - Annie Laurie
TTITLE12=Keen - Tweet and Tropical
TTITLE13=Traditionell - Finn Air
TTITLE14=Russell-Levy - Mugging' Lightly
TTITLE15=Kid Ory - Ory's Creole Trombone
TTITLE16=Larry Clinton - Spooky takes a Hollyday
TTITLE17=Joe Grey-Leo, Wood-a Harrington Gibby - Running wild
TTITLE18=T. Dorsey - Beedle-um-bum
EXTD=
EXTT0=
EXTT1=
EXTT2=
EXTT3=
EXTT4=
EXTT5=
EXTT6=
EXTT7=
EXTT8=
EXTT9=
EXTT10=
EXTT11=
EXTT12=
EXTT13=
EXTT14=
EXTT15=
EXTT16=
EXTT17=
EXTT18=
PLAYORDER=
